<svg width="45" height="33" viewBox="0 0 45 33" fill="none" xmlns="http://www.w3.org/2000/svg">
<g clip-path="url(#clip0_308_1342)">
<path d="M8.37558 32.9278V30.7377C8.37558 29.9 7.84715 29.3514 6.94003 29.3514C6.48646 29.3514 5.99327 29.496 5.6542 29.9723C5.38999 29.5725 5.01128 29.3514 4.44323 29.3514C4.06453 29.3514 3.68582 29.462 3.38638 29.8617V29.4237H2.59375V32.9278H3.38638V30.9929C3.38638 30.372 3.72546 30.0786 4.25388 30.0786C4.7823 30.0786 5.04651 30.406 5.04651 30.9929V32.9278H5.83915V30.9929C5.83915 30.372 6.21785 30.0786 6.70664 30.0786C7.23506 30.0786 7.49927 30.406 7.49927 30.9929V32.9278H8.37558ZM20.133 29.4237H18.8472V28.3648H18.0545V29.4237H17.3367V30.1169H18.0545V31.7243C18.0545 32.5281 18.3936 33.0001 19.3007 33.0001C19.6398 33.0001 20.0185 32.8895 20.2827 32.745L20.0537 32.0858C19.8247 32.2304 19.5605 32.2687 19.3712 32.2687C18.9925 32.2687 18.8427 32.0475 18.8427 31.6861V30.1169H20.1286V29.4237H20.133ZM26.8616 29.3471C26.408 29.3471 26.1042 29.5683 25.9148 29.8575V29.4194H25.1222V32.9236H25.9148V30.9504C25.9148 30.3678 26.179 30.0361 26.6722 30.0361C26.8219 30.0361 27.0113 30.0743 27.1654 30.1084L27.3944 29.3769C27.2359 29.3471 27.0113 29.3471 26.8616 29.3471ZM16.6938 29.7129C16.3151 29.4577 15.7867 29.3471 15.2186 29.3471C14.3115 29.3471 13.7082 29.7852 13.7082 30.4783C13.7082 31.0609 14.1618 31.3926 14.9544 31.499L15.3331 31.5372C15.7471 31.6095 15.9761 31.7201 15.9761 31.9029C15.9761 32.1581 15.6722 32.341 15.1438 32.341C14.6154 32.341 14.197 32.1581 13.9328 31.9752L13.5541 32.5578C13.968 32.8513 14.5361 32.9959 15.1042 32.9959C16.161 32.9959 16.7687 32.5196 16.7687 31.8647C16.7687 31.2438 16.2755 30.9164 15.5225 30.8058L15.1438 30.7675C14.8047 30.7292 14.5405 30.6569 14.5405 30.4401C14.5405 30.1849 14.8047 30.0403 15.2231 30.0403C15.6766 30.0403 16.1302 30.2232 16.3592 30.3337L16.6938 29.7129ZM37.7823 29.3471C37.3287 29.3471 37.0249 29.5683 36.8355 29.8575V29.4194H36.0429V32.9236H36.8355V30.9504C36.8355 30.3678 37.0998 30.0361 37.5929 30.0361C37.7427 30.0361 37.932 30.0743 38.0861 30.1084L38.3151 29.3854C38.161 29.3471 37.9364 29.3471 37.7823 29.3471ZM27.6542 31.1758C27.6542 32.2346 28.4116 33.0001 29.5829 33.0001C30.1114 33.0001 30.4901 32.8895 30.8688 32.6004L30.4901 31.9795C30.1862 32.2006 29.8868 32.3069 29.5433 32.3069C28.9004 32.3069 28.4468 31.8689 28.4468 31.1758C28.4468 30.5166 28.9004 30.0786 29.5433 30.0446C29.8824 30.0446 30.1862 30.1551 30.4901 30.372L30.8688 29.7511C30.4901 29.4577 30.1114 29.3514 29.5829 29.3514C28.4116 29.3471 27.6542 30.1169 27.6542 31.1758ZM34.9861 31.1758V29.4237H34.1934V29.8617C33.9292 29.5343 33.5505 29.3514 33.0573 29.3514C32.0357 29.3514 31.2431 30.1169 31.2431 31.1758C31.2431 32.2346 32.0357 33.0001 33.0573 33.0001C33.5857 33.0001 33.9644 32.8173 34.1934 32.4898V32.9278H34.9861V31.1758ZM32.0753 31.1758C32.0753 30.5549 32.4893 30.0446 33.1718 30.0446C33.8147 30.0446 34.2683 30.5209 34.2683 31.1758C34.2683 31.7966 33.8147 32.3069 33.1718 32.3069C32.4937 32.2687 32.0753 31.7924 32.0753 31.1758ZM22.5901 29.3471C21.5333 29.3471 20.7759 30.0786 20.7759 31.1715C20.7759 32.2687 21.5333 32.9959 22.6298 32.9959C23.1582 32.9959 23.6866 32.8513 24.105 32.5196L23.7263 31.971C23.4224 32.1921 23.0437 32.3367 22.6694 32.3367C22.1762 32.3367 21.6874 32.1156 21.5729 31.499H24.2547C24.2547 31.3884 24.2547 31.3161 24.2547 31.2055C24.2899 30.0786 23.6074 29.3471 22.5901 29.3471ZM22.5901 30.0063C23.0833 30.0063 23.4224 30.2997 23.4973 30.8441H21.6082C21.683 30.372 22.0221 30.0063 22.5901 30.0063ZM42.2827 31.1758V28.0374H41.4901V29.8617C41.2259 29.5343 40.8472 29.3514 40.354 29.3514C39.3323 29.3514 38.5397 30.1169 38.5397 31.1758C38.5397 32.2346 39.3323 33.0001 40.354 33.0001C40.8824 33.0001 41.2611 32.8173 41.4901 32.4898V32.9278H42.2827V31.1758ZM39.372 31.1758C39.372 30.5549 39.7859 30.0446 40.4684 30.0446C41.1114 30.0446 41.5649 30.5209 41.5649 31.1758C41.5649 31.7966 41.1114 32.3069 40.4684 32.3069C39.7859 32.2687 39.372 31.7924 39.372 31.1758ZM12.8363 31.1758V29.4237H12.0437V29.8617C11.7795 29.5343 11.4008 29.3514 10.9076 29.3514C9.88598 29.3514 9.09335 30.1169 9.09335 31.1758C9.09335 32.2346 9.88598 33.0001 10.9076 33.0001C11.436 33.0001 11.8147 32.8173 12.0437 32.4898V32.9278H12.8363V31.1758ZM9.89039 31.1758C9.89039 30.5549 10.3043 30.0446 10.9869 30.0446C11.6298 30.0446 12.0833 30.5209 12.0833 31.1758C12.0833 31.7966 11.6298 32.3069 10.9869 32.3069C10.3043 32.2687 9.89039 31.7924 9.89039 31.1758Z" fill="#7D7C94"/>
<path d="M28.3368 2.81104H16.4297V23.4701H28.3368V2.81104Z" fill="#55546D"/>
<path d="M17.2218 13.1405C17.2218 8.94317 19.2651 5.21791 22.4004 2.81095C20.0929 1.05889 17.1822 0 14.0073 0C6.48606 0 0.400391 5.87706 0.400391 13.1405C0.400391 20.4039 6.48606 26.2809 14.0073 26.2809C17.1822 26.2809 20.0929 25.222 22.4004 23.47C19.2607 21.097 17.2218 17.3378 17.2218 13.1405Z" fill="#62617E"/>
<path d="M44.4004 13.1405C44.4004 20.4039 38.3147 26.2809 30.7935 26.2809C27.6186 26.2809 24.7078 25.222 22.4004 23.47C25.5753 21.0588 27.5789 17.3378 27.5789 13.1405C27.5789 8.94317 25.5357 5.21791 22.4004 2.81095C24.7034 1.05889 27.6142 0 30.7891 0C38.3147 0 44.4004 5.91534 44.4004 13.1405Z" fill="#7D7C94"/>
</g>
<defs>
<clipPath id="clip0_308_1342">
<rect width="44" height="33" fill="white" transform="translate(0.400391)"/>
</clipPath>
</defs>
</svg>
